# Blender v2.76 (sub 0) OBJ File: 'green_bin.blend'
# www.blender.org
mtllib green_bin.mtl
o green_bin_Cylinder.003
v 0.136567 0.182180 -0.184595
v 0.125000 -0.152616 -0.172903
v -0.125000 -0.152616 -0.172904
v -0.136567 0.182180 -0.184595
v 0.136567 0.182267 -0.182096
v 0.125000 -0.152529 -0.170405
v -0.125000 -0.152528 -0.170405
v -0.136567 0.182268 -0.182096
v 0.137095 0.182180 -0.184519
v 0.137095 0.182180 0.184519
v 0.125404 -0.152616 0.172500
v 0.125404 -0.152616 -0.172500
v 0.134596 0.182268 -0.184519
v 0.134596 0.182267 0.184519
v 0.122905 -0.152528 0.172500
v 0.122905 -0.152528 -0.172500
v -0.125404 -0.152616 -0.172500
v -0.125404 -0.152616 0.172500
v -0.137095 0.182180 0.184332
v -0.137095 0.182180 -0.184332
v -0.122905 -0.152528 -0.172500
v -0.122905 -0.152528 0.172500
v -0.134596 0.182268 0.184332
v -0.134596 0.182268 -0.184332
v 0.125000 -0.138924 -0.172500
v 0.125000 -0.138924 0.172500
v -0.125000 -0.138924 0.172500
v -0.125000 -0.138924 -0.172500
v 0.125000 -0.136424 -0.172500
v 0.125000 -0.136424 0.172500
v -0.125000 -0.136424 0.172500
v -0.125000 -0.136424 -0.172500
v 0.125000 -0.152616 0.172904
v 0.134019 0.182180 0.184595
v -0.134018 0.182180 0.184595
v -0.125000 -0.152616 0.172904
v 0.125000 -0.152528 0.170405
v 0.134018 0.182268 0.182097
v -0.134019 0.182267 0.182097
v -0.125000 -0.152528 0.170405
v -0.067500 -0.167268 0.107500
v -0.067500 -0.137268 0.107500
v -0.067500 -0.167268 0.092500
v -0.067500 -0.137268 0.092500
v -0.052500 -0.167268 0.107500
v -0.052500 -0.137268 0.107500
v -0.052500 -0.167268 0.092500
v -0.052500 -0.137268 0.092500
v 0.070000 -0.142268 -0.115000
v 0.070000 -0.142268 -0.085000
v 0.073902 -0.142652 -0.115000
v 0.073902 -0.142652 -0.085000
v 0.077654 -0.143790 -0.115000
v 0.077654 -0.143790 -0.085000
v 0.081111 -0.145638 -0.115000
v 0.081111 -0.145638 -0.085000
v 0.084142 -0.148126 -0.115000
v 0.084142 -0.148126 -0.085000
v 0.086629 -0.151156 -0.115000
v 0.086629 -0.151156 -0.085000
v 0.088478 -0.154614 -0.115000
v 0.088478 -0.154614 -0.085000
v 0.089616 -0.158366 -0.115000
v 0.089616 -0.158366 -0.085000
v 0.090000 -0.162268 -0.115000
v 0.090000 -0.162268 -0.085000
v 0.089616 -0.166169 -0.115000
v 0.089616 -0.166169 -0.085000
v 0.088478 -0.169921 -0.115000
v 0.088478 -0.169921 -0.085000
v 0.086629 -0.173379 -0.115000
v 0.086629 -0.173379 -0.085000
v 0.084142 -0.176410 -0.115000
v 0.084142 -0.176410 -0.085000
v 0.081111 -0.178897 -0.115000
v 0.081111 -0.178897 -0.085000
v 0.077654 -0.180745 -0.115000
v 0.077654 -0.180745 -0.085000
v 0.073902 -0.181883 -0.115000
v 0.073902 -0.181883 -0.085000
v 0.070000 -0.182268 -0.115000
v 0.070000 -0.182268 -0.085000
v 0.066098 -0.181883 -0.115000
v 0.066098 -0.181883 -0.085000
v 0.062346 -0.180745 -0.115000
v 0.062346 -0.180745 -0.085000
v 0.058889 -0.178897 -0.115000
v 0.058889 -0.178897 -0.085000
v 0.055858 -0.176410 -0.115000
v 0.055858 -0.176410 -0.085000
v 0.053371 -0.173379 -0.115000
v 0.053371 -0.173379 -0.085000
v 0.051522 -0.169921 -0.115000
v 0.051522 -0.169921 -0.085000
v 0.050384 -0.166169 -0.115000
v 0.050384 -0.166169 -0.085000
v 0.050000 -0.162268 -0.115000
v 0.050000 -0.162268 -0.085000
v 0.050384 -0.158366 -0.115000
v 0.050384 -0.158366 -0.085000
v 0.051522 -0.154614 -0.115000
v 0.051522 -0.154614 -0.085000
v 0.053371 -0.151156 -0.115000
v 0.053371 -0.151156 -0.085000
v 0.055858 -0.148125 -0.115000
v 0.055858 -0.148125 -0.085000
v 0.058889 -0.145638 -0.115000
v 0.058889 -0.145638 -0.085000
v 0.062346 -0.143790 -0.115000
v 0.062346 -0.143790 -0.085000
v 0.066098 -0.142652 -0.115000
v 0.066098 -0.142652 -0.085000
v -0.070000 -0.142268 0.085000
v -0.070000 -0.142268 0.115000
v -0.066098 -0.142652 0.085000
v -0.066098 -0.142652 0.115000
v -0.062346 -0.143790 0.085000
v -0.062346 -0.143790 0.115000
v -0.058889 -0.145638 0.085000
v -0.058889 -0.145638 0.115000
v -0.055858 -0.148125 0.085000
v -0.055858 -0.148125 0.115000
v -0.053371 -0.151156 0.085000
v -0.053371 -0.151156 0.115000
v -0.051522 -0.154614 0.085000
v -0.051522 -0.154614 0.115000
v -0.050384 -0.158366 0.085000
v -0.050384 -0.158366 0.115000
v -0.050000 -0.162268 0.085000
v -0.050000 -0.162268 0.115000
v -0.050384 -0.166169 0.085000
v -0.050384 -0.166169 0.115000
v -0.051522 -0.169921 0.085000
v -0.051522 -0.169921 0.115000
v -0.053371 -0.173379 0.085000
v -0.053371 -0.173379 0.115000
v -0.055858 -0.176410 0.085000
v -0.055858 -0.176410 0.115000
v -0.058889 -0.178897 0.085000
v -0.058889 -0.178897 0.115000
v -0.062346 -0.180745 0.085000
v -0.062346 -0.180745 0.115000
v -0.066098 -0.181883 0.085000
v -0.066098 -0.181883 0.115000
v -0.070000 -0.182268 0.085000
v -0.070000 -0.182268 0.115000
v -0.073902 -0.181883 0.085000
v -0.073902 -0.181883 0.115000
v -0.077654 -0.180745 0.085000
v -0.077654 -0.180745 0.115000
v -0.081111 -0.178897 0.085000
v -0.081111 -0.178897 0.115000
v -0.084142 -0.176410 0.085000
v -0.084142 -0.176410 0.115000
v -0.086629 -0.173379 0.085000
v -0.086629 -0.173379 0.115000
v -0.088478 -0.169921 0.085000
v -0.088478 -0.169921 0.115000
v -0.089616 -0.166169 0.085000
v -0.089616 -0.166169 0.115000
v -0.090000 -0.162268 0.085000
v -0.090000 -0.162268 0.115000
v -0.089616 -0.158366 0.085000
v -0.089616 -0.158366 0.115000
v -0.088478 -0.154614 0.085000
v -0.088478 -0.154614 0.115000
v -0.086629 -0.151156 0.085000
v -0.086629 -0.151156 0.115000
v -0.084142 -0.148125 0.085000
v -0.084142 -0.148125 0.115000
v -0.081111 -0.145638 0.085000
v -0.081111 -0.145638 0.115000
v -0.077654 -0.143790 0.085000
v -0.077654 -0.143790 0.115000
v -0.073902 -0.142652 0.085000
v -0.073902 -0.142652 0.115000
v 0.070000 -0.142268 0.085000
v 0.070000 -0.142268 0.115000
v 0.073902 -0.142652 0.085000
v 0.073902 -0.142652 0.115000
v 0.077654 -0.143790 0.085000
v 0.077654 -0.143790 0.115000
v 0.081111 -0.145638 0.085000
v 0.081111 -0.145638 0.115000
v 0.084142 -0.148125 0.085000
v 0.084142 -0.148125 0.115000
v 0.086629 -0.151156 0.085000
v 0.086629 -0.151156 0.115000
v 0.088478 -0.154614 0.085000
v 0.088478 -0.154614 0.115000
v 0.089616 -0.158366 0.085000
v 0.089616 -0.158366 0.115000
v 0.090000 -0.162268 0.085000
v 0.090000 -0.162268 0.115000
v 0.089616 -0.166169 0.085000
v 0.089616 -0.166169 0.115000
v 0.088478 -0.169921 0.085000
v 0.088478 -0.169921 0.115000
v 0.086629 -0.173379 0.085000
v 0.086629 -0.173379 0.115000
v 0.084142 -0.176410 0.085000
v 0.084142 -0.176410 0.115000
v 0.081111 -0.178897 0.085000
v 0.081111 -0.178897 0.115000
v 0.077654 -0.180745 0.085000
v 0.077654 -0.180745 0.115000
v 0.073902 -0.181883 0.085000
v 0.073902 -0.181883 0.115000
v 0.070000 -0.182268 0.085000
v 0.070000 -0.182268 0.115000
v 0.066098 -0.181883 0.085000
v 0.066098 -0.181883 0.115000
v 0.062346 -0.180745 0.085000
v 0.062346 -0.180745 0.115000
v 0.058889 -0.178897 0.085000
v 0.058889 -0.178897 0.115000
v 0.055858 -0.176410 0.085000
v 0.055858 -0.176410 0.115000
v 0.053371 -0.173379 0.085000
v 0.053371 -0.173379 0.115000
v 0.051522 -0.169921 0.085000
v 0.051522 -0.169921 0.115000
v 0.050384 -0.166169 0.085000
v 0.050384 -0.166169 0.115000
v 0.050000 -0.162268 0.085000
v 0.050000 -0.162268 0.115000
v 0.050384 -0.158366 0.085000
v 0.050384 -0.158366 0.115000
v 0.051522 -0.154614 0.085000
v 0.051522 -0.154614 0.115000
v 0.053371 -0.151156 0.085000
v 0.053371 -0.151156 0.115000
v 0.055858 -0.148125 0.085000
v 0.055858 -0.148125 0.115000
v 0.058889 -0.145638 0.085000
v 0.058889 -0.145638 0.115000
v 0.062346 -0.143790 0.085000
v 0.062346 -0.143790 0.115000
v 0.066098 -0.142652 0.085000
v 0.066098 -0.142652 0.115000
v -0.070000 -0.142268 -0.115000
v -0.070000 -0.142268 -0.085000
v -0.066098 -0.142652 -0.115000
v -0.066098 -0.142652 -0.085000
v -0.062346 -0.143790 -0.115000
v -0.062346 -0.143790 -0.085000
v -0.058889 -0.145638 -0.115000
v -0.058889 -0.145638 -0.085000
v -0.055858 -0.148126 -0.115000
v -0.055858 -0.148126 -0.085000
v -0.053371 -0.151156 -0.115000
v -0.053371 -0.151156 -0.085000
v -0.051522 -0.154614 -0.115000
v -0.051522 -0.154614 -0.085000
v -0.050384 -0.158366 -0.115000
v -0.050384 -0.158366 -0.085000
v -0.050000 -0.162268 -0.115000
v -0.050000 -0.162268 -0.085000
v -0.050384 -0.166169 -0.115000
v -0.050384 -0.166169 -0.085000
v -0.051522 -0.169921 -0.115000
v -0.051522 -0.169921 -0.085000
v -0.053371 -0.173379 -0.115000
v -0.053371 -0.173379 -0.085000
v -0.055858 -0.176410 -0.115000
v -0.055858 -0.176410 -0.085000
v -0.058889 -0.178897 -0.115000
v -0.058889 -0.178897 -0.085000
v -0.062346 -0.180745 -0.115000
v -0.062346 -0.180745 -0.085000
v -0.066098 -0.181883 -0.115000
v -0.066098 -0.181883 -0.085000
v -0.070000 -0.182268 -0.115000
v -0.070000 -0.182268 -0.085000
v -0.073902 -0.181883 -0.115000
v -0.073902 -0.181883 -0.085000
v -0.077654 -0.180745 -0.115000
v -0.077654 -0.180745 -0.085000
v -0.081111 -0.178897 -0.115000
v -0.081111 -0.178897 -0.085000
v -0.084142 -0.176410 -0.115000
v -0.084142 -0.176410 -0.085000
v -0.086629 -0.173379 -0.115000
v -0.086629 -0.173379 -0.085000
v -0.088478 -0.169921 -0.115000
v -0.088478 -0.169921 -0.085000
v -0.089616 -0.166169 -0.115000
v -0.089616 -0.166169 -0.085000
v -0.090000 -0.162268 -0.115000
v -0.090000 -0.162268 -0.085000
v -0.089616 -0.158366 -0.115000
v -0.089616 -0.158366 -0.085000
v -0.088478 -0.154614 -0.115000
v -0.088478 -0.154614 -0.085000
v -0.086629 -0.151156 -0.115000
v -0.086629 -0.151156 -0.085000
v -0.084142 -0.148125 -0.115000
v -0.084142 -0.148125 -0.085000
v -0.081111 -0.145638 -0.115000
v -0.081111 -0.145638 -0.085000
v -0.077654 -0.143790 -0.115000
v -0.077654 -0.143790 -0.085000
v -0.073902 -0.142652 -0.115000
v -0.073902 -0.142652 -0.085000
v -0.067500 -0.167268 -0.092500
v -0.067500 -0.137268 -0.092500
v -0.067500 -0.167268 -0.107500
v -0.067500 -0.137268 -0.107500
v -0.052500 -0.167268 -0.092500
v -0.052500 -0.137268 -0.092500
v -0.052500 -0.167268 -0.107500
v -0.052500 -0.137268 -0.107500
v 0.052500 -0.167268 -0.092500
v 0.052500 -0.137268 -0.092500
v 0.052500 -0.167268 -0.107500
v 0.052500 -0.137268 -0.107500
v 0.067500 -0.167268 -0.092500
v 0.067500 -0.137268 -0.092500
v 0.067500 -0.167268 -0.107500
v 0.067500 -0.137268 -0.107500
v 0.052500 -0.167268 0.107500
v 0.052500 -0.137268 0.107500
v 0.052500 -0.167268 0.092500
v 0.052500 -0.137268 0.092500
v 0.067500 -0.167268 0.107500
v 0.067500 -0.137268 0.107500
v 0.067500 -0.167268 0.092500
v 0.067500 -0.137268 0.092500
vn -1.000000 0.000000 0.000000
vn 0.000000 0.000000 -1.000000
vn 1.000000 0.000000 0.000000
vn 0.000000 0.000000 1.000000
vn 0.000000 -1.000000 0.000000
vn 0.000000 1.000000 0.000000
vn 0.098000 0.995200 0.000000
vn 0.290300 0.956900 0.000000
vn 0.471400 0.881900 0.000000
vn 0.634400 0.773000 0.000000
vn 0.773000 0.634400 0.000000
vn 0.881900 0.471400 0.000000
vn 0.956900 0.290300 0.000000
vn 0.995200 0.098000 0.000000
vn 0.995200 -0.098000 0.000000
vn 0.956900 -0.290300 0.000000
vn 0.881900 -0.471400 0.000000
vn 0.773000 -0.634400 0.000000
vn 0.634400 -0.773000 0.000000
vn 0.471400 -0.881900 0.000000
vn 0.290300 -0.956900 0.000000
vn 0.098000 -0.995200 0.000000
vn -0.098000 -0.995200 0.000000
vn -0.290300 -0.956900 0.000000
vn -0.471400 -0.881900 0.000000
vn -0.634400 -0.773000 0.000000
vn -0.773000 -0.634400 0.000000
vn -0.881900 -0.471400 0.000000
vn -0.956900 -0.290300 0.000000
vn -0.995200 -0.098000 0.000000
vn -0.995200 0.098000 0.000000
vn -0.956900 0.290300 0.000000
vn -0.881900 0.471400 0.000000
vn -0.773000 0.634400 0.000000
vn -0.634400 0.773000 0.000000
vn -0.471400 0.881900 0.000000
vn -0.098000 0.995200 0.000000
vn -0.290300 0.956900 0.000000
vn 0.000000 -0.034900 -0.999400
vn -0.000000 0.034900 0.999400
vn 0.999400 -0.034500 0.001200
vn -0.000000 -0.999400 0.034900
vn -0.999400 -0.034500 0.001200
vn 0.000000 0.999400 -0.034900
vn 0.999400 -0.034900 -0.000000
vn -0.999400 0.034900 0.000000
vn 0.034900 0.999400 0.000000
vn -0.001200 -0.035800 0.999400
vn -0.034900 -0.999400 -0.000000
vn -0.001300 -0.035800 -0.999400
vn -0.999400 -0.034900 0.000000
vn 0.999400 0.034900 -0.000000
vn 0.034900 -0.999400 0.000000
vn 0.001200 -0.035300 0.999400
vn -0.034900 0.999400 -0.000000
vn 0.001300 -0.035300 -0.999400
vn -0.000000 -0.034900 0.999400
vn 0.000000 0.034900 -0.999400
vn 0.999600 -0.026900 -0.000900
vn -0.000000 0.999400 0.034900
vn -0.999600 -0.026900 -0.000900
vn 0.000000 -0.999400 -0.034900
usemtl BLACK_MATTE
s off
f 42//1 44//1 43//1 41//1
f 44//2 48//2 47//2 43//2
f 48//3 46//3 45//3 47//3
f 46//4 42//4 41//4 45//4
f 41//5 43//5 47//5 45//5
f 46//6 48//6 44//6 42//6
f 49//7 50//7 52//7 51//7
f 51//8 52//8 54//8 53//8
f 53//9 54//9 56//9 55//9
f 55//10 56//10 58//10 57//10
f 57//11 58//11 60//11 59//11
f 59//12 60//12 62//12 61//12
f 61//13 62//13 64//13 63//13
f 63//14 64//14 66//14 65//14
f 65//15 66//15 68//15 67//15
f 67//16 68//16 70//16 69//16
f 69//17 70//17 72//17 71//17
f 71//18 72//18 74//18 73//18
f 73//19 74//19 76//19 75//19
f 75//20 76//20 78//20 77//20
f 77//21 78//21 80//21 79//21
f 79//22 80//22 82//22 81//22
f 81//23 82//23 84//23 83//23
f 83//24 84//24 86//24 85//24
f 85//25 86//25 88//25 87//25
f 87//26 88//26 90//26 89//26
f 89//27 90//27 92//27 91//27
f 91//28 92//28 94//28 93//28
f 93//29 94//29 96//29 95//29
f 95//30 96//30 98//30 97//30
f 97//31 98//31 100//31 99//31
f 99//32 100//32 102//32 101//32
f 101//33 102//33 104//33 103//33
f 103//34 104//34 106//34 105//34
f 105//35 106//35 108//35 107//35
f 107//36 108//36 110//36 109//36
f 52//4 50//4 112//4 110//4 108//4 106//4 104//4 102//4 100//4 98//4 96//4 94//4 92//4 90//4 88//4 86//4 84//4 82//4 80//4 78//4 76//4 74//4 72//4 70//4 68//4 66//4 64//4 62//4 60//4 58//4 56//4 54//4
f 111//37 112//37 50//37 49//37
f 109//38 110//38 112//38 111//38
f 49//2 51//2 53//2 55//2 57//2 59//2 61//2 63//2 65//2 67//2 69//2 71//2 73//2 75//2 77//2 79//2 81//2 83//2 85//2 87//2 89//2 91//2 93//2 95//2 97//2 99//2 101//2 103//2 105//2 107//2 109//2 111//2
f 113//7 114//7 116//7 115//7
f 115//8 116//8 118//8 117//8
f 117//9 118//9 120//9 119//9
f 119//10 120//10 122//10 121//10
f 121//11 122//11 124//11 123//11
f 123//12 124//12 126//12 125//12
f 125//13 126//13 128//13 127//13
f 127//14 128//14 130//14 129//14
f 129//15 130//15 132//15 131//15
f 131//16 132//16 134//16 133//16
f 133//17 134//17 136//17 135//17
f 135//18 136//18 138//18 137//18
f 137//19 138//19 140//19 139//19
f 139//20 140//20 142//20 141//20
f 141//21 142//21 144//21 143//21
f 143//22 144//22 146//22 145//22
f 145//23 146//23 148//23 147//23
f 147//24 148//24 150//24 149//24
f 149//25 150//25 152//25 151//25
f 151//26 152//26 154//26 153//26
f 153//27 154//27 156//27 155//27
f 155//28 156//28 158//28 157//28
f 157//29 158//29 160//29 159//29
f 159//30 160//30 162//30 161//30
f 161//31 162//31 164//31 163//31
f 163//32 164//32 166//32 165//32
f 165//33 166//33 168//33 167//33
f 167//34 168//34 170//34 169//34
f 169//35 170//35 172//35 171//35
f 171//36 172//36 174//36 173//36
f 116//4 114//4 176//4 174//4 172//4 170//4 168//4 166//4 164//4 162//4 160//4 158//4 156//4 154//4 152//4 150//4 148//4 146//4 144//4 142//4 140//4 138//4 136//4 134//4 132//4 130//4 128//4 126//4 124//4 122//4 120//4 118//4
f 175//37 176//37 114//37 113//37
f 173//38 174//38 176//38 175//38
f 113//2 115//2 117//2 119//2 121//2 123//2 125//2 127//2 129//2 131//2 133//2 135//2 137//2 139//2 141//2 143//2 145//2 147//2 149//2 151//2 153//2 155//2 157//2 159//2 161//2 163//2 165//2 167//2 169//2 171//2 173//2 175//2
f 177//7 178//7 180//7 179//7
f 179//8 180//8 182//8 181//8
f 181//9 182//9 184//9 183//9
f 183//10 184//10 186//10 185//10
f 185//11 186//11 188//11 187//11
f 187//12 188//12 190//12 189//12
f 189//13 190//13 192//13 191//13
f 191//14 192//14 194//14 193//14
f 193//15 194//15 196//15 195//15
f 195//16 196//16 198//16 197//16
f 197//17 198//17 200//17 199//17
f 199//18 200//18 202//18 201//18
f 201//19 202//19 204//19 203//19
f 203//20 204//20 206//20 205//20
f 205//21 206//21 208//21 207//21
f 207//22 208//22 210//22 209//22
f 209//23 210//23 212//23 211//23
f 211//24 212//24 214//24 213//24
f 213//25 214//25 216//25 215//25
f 215//26 216//26 218//26 217//26
f 217//27 218//27 220//27 219//27
f 219//28 220//28 222//28 221//28
f 221//29 222//29 224//29 223//29
f 223//30 224//30 226//30 225//30
f 225//31 226//31 228//31 227//31
f 227//32 228//32 230//32 229//32
f 229//33 230//33 232//33 231//33
f 231//34 232//34 234//34 233//34
f 233//35 234//35 236//35 235//35
f 235//36 236//36 238//36 237//36
f 180//4 178//4 240//4 238//4 236//4 234//4 232//4 230//4 228//4 226//4 224//4 222//4 220//4 218//4 216//4 214//4 212//4 210//4 208//4 206//4 204//4 202//4 200//4 198//4 196//4 194//4 192//4 190//4 188//4 186//4 184//4 182//4
f 239//37 240//37 178//37 177//37
f 237//38 238//38 240//38 239//38
f 177//2 179//2 181//2 183//2 185//2 187//2 189//2 191//2 193//2 195//2 197//2 199//2 201//2 203//2 205//2 207//2 209//2 211//2 213//2 215//2 217//2 219//2 221//2 223//2 225//2 227//2 229//2 231//2 233//2 235//2 237//2 239//2
f 241//7 242//7 244//7 243//7
f 243//8 244//8 246//8 245//8
f 245//9 246//9 248//9 247//9
f 247//10 248//10 250//10 249//10
f 249//11 250//11 252//11 251//11
f 251//12 252//12 254//12 253//12
f 253//13 254//13 256//13 255//13
f 255//14 256//14 258//14 257//14
f 257//15 258//15 260//15 259//15
f 259//16 260//16 262//16 261//16
f 261//17 262//17 264//17 263//17
f 263//18 264//18 266//18 265//18
f 265//19 266//19 268//19 267//19
f 267//20 268//20 270//20 269//20
f 269//21 270//21 272//21 271//21
f 271//22 272//22 274//22 273//22
f 273//23 274//23 276//23 275//23
f 275//24 276//24 278//24 277//24
f 277//25 278//25 280//25 279//25
f 279//26 280//26 282//26 281//26
f 281//27 282//27 284//27 283//27
f 283//28 284//28 286//28 285//28
f 285//29 286//29 288//29 287//29
f 287//30 288//30 290//30 289//30
f 289//31 290//31 292//31 291//31
f 291//32 292//32 294//32 293//32
f 293//33 294//33 296//33 295//33
f 295//34 296//34 298//34 297//34
f 297//35 298//35 300//35 299//35
f 299//36 300//36 302//36 301//36
f 244//4 242//4 304//4 302//4 300//4 298//4 296//4 294//4 292//4 290//4 288//4 286//4 284//4 282//4 280//4 278//4 276//4 274//4 272//4 270//4 268//4 266//4 264//4 262//4 260//4 258//4 256//4 254//4 252//4 250//4 248//4 246//4
f 303//37 304//37 242//37 241//37
f 301//38 302//38 304//38 303//38
f 241//2 243//2 245//2 247//2 249//2 251//2 253//2 255//2 257//2 259//2 261//2 263//2 265//2 267//2 269//2 271//2 273//2 275//2 277//2 279//2 281//2 283//2 285//2 287//2 289//2 291//2 293//2 295//2 297//2 299//2 301//2 303//2
f 306//1 308//1 307//1 305//1
f 308//2 312//2 311//2 307//2
f 312//3 310//3 309//3 311//3
f 310//4 306//4 305//4 309//4
f 305//5 307//5 311//5 309//5
f 310//6 312//6 308//6 306//6
f 314//1 316//1 315//1 313//1
f 316//2 320//2 319//2 315//2
f 320//3 318//3 317//3 319//3
f 318//4 314//4 313//4 317//4
f 313//5 315//5 319//5 317//5
f 318//6 320//6 316//6 314//6
f 322//1 324//1 323//1 321//1
f 324//2 328//2 327//2 323//2
f 328//3 326//3 325//3 327//3
f 326//4 322//4 321//4 325//4
f 321//5 323//5 327//5 325//5
f 326//6 328//6 324//6 322//6
usemtl green
f 1//39 2//39 3//39 4//39
f 5//40 8//40 7//40 6//40
f 1//41 5//41 6//41 2//41
f 2//42 6//42 7//42 3//42
f 3//43 7//43 8//43 4//43
f 5//44 1//44 4//44 8//44
f 9//45 10//45 11//45 12//45
f 13//46 16//46 15//46 14//46
f 9//47 13//47 14//47 10//47
f 10//48 14//48 15//48 11//48
f 11//49 15//49 16//49 12//49
f 13//50 9//50 12//50 16//50
f 17//51 18//51 19//51 20//51
f 21//52 24//52 23//52 22//52
f 17//53 21//53 22//53 18//53
f 18//54 22//54 23//54 19//54
f 19//55 23//55 24//55 20//55
f 21//56 17//56 20//56 24//56
f 25//5 26//5 27//5 28//5
f 29//6 32//6 31//6 30//6
f 25//3 29//3 30//3 26//3
f 26//4 30//4 31//4 27//4
f 27//1 31//1 32//1 28//1
f 29//2 25//2 28//2 32//2
f 33//57 34//57 35//57 36//57
f 37//58 40//58 39//58 38//58
f 33//59 37//59 38//59 34//59
f 34//60 38//60 39//60 35//60
f 35//61 39//61 40//61 36//61
f 37//62 33//62 36//62 40//62
