# Blender v2.76 (sub 0) OBJ File: 'yellow_cup.blend'
# www.blender.org
mtllib yellow_cup.mtl
o yellow_cup_Cylinder.002
v 0.000000 -0.031231 0.039039
v -0.000000 0.031231 0.036694
v -0.007616 -0.031231 0.038289
v -0.007159 0.031231 0.035989
v -0.014940 -0.031231 0.036067
v -0.014042 0.031231 0.033900
v -0.021689 -0.031231 0.032460
v -0.020386 0.031231 0.030510
v -0.027605 -0.031231 0.027605
v -0.025946 0.031231 0.025946
v -0.032460 -0.031231 0.021689
v -0.030510 0.031231 0.020386
v -0.036067 -0.031231 0.014940
v -0.033900 0.031231 0.014042
v -0.038289 -0.031231 0.007616
v -0.035989 0.031231 0.007159
v -0.039039 -0.031231 0.000000
v -0.036694 0.031231 0.000000
v -0.038289 -0.031231 -0.007616
v -0.035989 0.031231 -0.007159
v -0.036067 -0.031231 -0.014940
v -0.033900 0.031231 -0.014042
v -0.032460 -0.031231 -0.021689
v -0.030510 0.031231 -0.020386
v -0.027605 -0.031231 -0.027605
v -0.025946 0.031231 -0.025946
v -0.021689 -0.031231 -0.032460
v -0.020386 0.031231 -0.030510
v -0.014940 -0.031231 -0.036067
v -0.014042 0.031231 -0.033900
v -0.007616 -0.031231 -0.038289
v -0.007159 0.031231 -0.035989
v 0.000000 -0.031231 -0.039039
v 0.000000 0.031231 -0.036694
v 0.007616 -0.031231 -0.038289
v 0.007159 0.031231 -0.035989
v 0.014940 -0.031231 -0.036067
v 0.014042 0.031231 -0.033900
v 0.021689 -0.031231 -0.032460
v 0.020386 0.031231 -0.030510
v 0.027605 -0.031231 -0.027605
v 0.025946 0.031231 -0.025946
v 0.032460 -0.031231 -0.021689
v 0.030510 0.031231 -0.020386
v 0.036067 -0.031231 -0.014940
v 0.033900 0.031231 -0.014042
v 0.038289 -0.031231 -0.007616
v 0.035989 0.031231 -0.007159
v 0.039039 -0.031231 0.000000
v 0.036694 0.031231 0.000000
v 0.038289 -0.031231 0.007616
v 0.035989 0.031231 0.007159
v 0.036067 -0.031231 0.014940
v 0.033900 0.031231 0.014042
v 0.032460 -0.031231 0.021689
v 0.030510 0.031231 0.020386
v 0.027605 -0.031231 0.027605
v 0.025946 0.031231 0.025946
v 0.021689 -0.031231 0.032460
v 0.020386 0.031231 0.030510
v 0.014940 -0.031231 0.036067
v 0.014042 0.031231 0.033901
v 0.007616 -0.031231 0.038289
v 0.007159 0.031231 0.035989
v 0.000056 -0.031231 0.034325
v -0.006617 -0.031231 0.033682
v -0.013041 -0.031231 0.031752
v -0.018970 -0.031231 0.028608
v -0.024178 -0.031231 0.024367
v -0.028463 -0.031231 0.019188
v -0.031659 -0.031231 0.013268
v -0.033640 -0.031231 0.006833
v -0.034326 -0.031231 0.000130
v -0.033689 -0.031231 -0.006582
v -0.031751 -0.031231 -0.013044
v -0.028583 -0.031231 -0.019006
v -0.024309 -0.031231 -0.024234
v -0.019092 -0.031231 -0.028525
v -0.013135 -0.031231 -0.031712
v -0.006670 -0.031231 -0.033670
v 0.000053 -0.031231 -0.034325
v 0.006772 -0.031231 -0.033651
v 0.013227 -0.031231 -0.031675
v 0.019168 -0.031231 -0.028476
v 0.024365 -0.031231 -0.024180
v 0.028619 -0.031231 -0.018955
v 0.031768 -0.031231 -0.013004
v 0.033695 -0.031231 -0.006559
v 0.034326 -0.031231 0.000134
v 0.033643 -0.031231 0.006815
v 0.031673 -0.031231 0.013231
v 0.028495 -0.031231 0.019138
v 0.024232 -0.031231 0.024311
v 0.019046 -0.031231 0.028556
v 0.013135 -0.031231 0.031712
v 0.006725 -0.031231 0.033659
v -0.000000 0.026146 0.036043
v -0.007032 0.026146 0.035350
v -0.013793 0.026146 0.033299
v -0.020024 0.026146 0.029969
v -0.025486 0.026146 0.025486
v -0.029969 0.026146 0.020024
v -0.033299 0.026146 0.013793
v -0.035350 0.026146 0.007032
v -0.036043 0.026146 0.000000
v -0.035350 0.026146 -0.007032
v -0.033299 0.026146 -0.013793
v -0.029969 0.026146 -0.020024
v -0.025486 0.026146 -0.025486
v -0.020024 0.026146 -0.029969
v -0.013793 0.026146 -0.033299
v -0.007032 0.026146 -0.035350
v 0.000000 0.026146 -0.036043
v 0.007032 0.026146 -0.035350
v 0.013793 0.026146 -0.033299
v 0.020024 0.026146 -0.029969
v 0.025486 0.026146 -0.025486
v 0.029969 0.026146 -0.020024
v 0.033299 0.026146 -0.013793
v 0.035350 0.026146 -0.007032
v 0.036043 0.026146 0.000000
v 0.035350 0.026146 0.007032
v 0.033299 0.026146 0.013793
v 0.029969 0.026146 0.020024
v 0.025486 0.026146 0.025486
v 0.020024 0.026146 0.029969
v 0.013793 0.026146 0.033299
v 0.007032 0.026146 0.035350
vn 0.470800 -0.051900 -0.880700
vn 0.772000 -0.051900 0.633500
vn -0.772000 -0.051900 0.633500
vn -0.470800 -0.051900 -0.880700
vn 0.993800 -0.051900 -0.097900
vn -0.097900 -0.051900 0.993800
vn -0.955700 -0.051900 -0.289900
vn 0.633500 -0.051900 -0.772000
vn 0.633500 -0.051900 0.772000
vn -0.880700 -0.051900 0.470800
vn 0.993800 -0.051900 0.097900
vn -0.289900 -0.051900 0.955700
vn -0.880700 -0.051900 -0.470800
vn 0.772000 -0.051900 -0.633500
vn 0.470800 -0.051900 0.880700
vn -0.955700 -0.051900 0.289900
vn 0.097900 -0.051900 -0.993800
vn -0.097900 -0.051900 -0.993800
vn 0.955700 -0.051900 0.289900
vn -0.470800 -0.051900 0.880700
vn -0.772000 -0.051900 -0.633500
vn 0.880700 -0.051900 -0.470800
vn 0.289900 -0.051900 0.955700
vn -0.993800 -0.051900 0.097900
vn 0.289900 -0.051900 -0.955700
vn 0.880700 -0.051900 0.470800
vn -0.633500 -0.051900 0.772000
vn -0.633500 -0.051900 -0.772000
vn 0.955700 -0.051900 -0.289900
vn 0.097900 -0.051900 0.993800
vn -0.993800 -0.051900 -0.097900
vn -0.000000 1.000000 0.000000
vn -0.097900 0.037300 0.994500
vn -0.290100 0.037300 0.956300
vn -0.471100 0.037300 0.881300
vn -0.634000 0.037300 0.772500
vn -0.772500 0.037300 0.634000
vn -0.881300 0.037300 0.471100
vn -0.956300 0.037300 0.290100
vn -0.994500 0.037300 0.097900
vn -0.994500 0.037300 -0.097900
vn -0.956300 0.037300 -0.290100
vn -0.881300 0.037300 -0.471100
vn -0.772500 0.037300 -0.634000
vn -0.634000 0.037300 -0.772500
vn -0.471100 0.037300 -0.881300
vn -0.290100 0.037300 -0.956300
vn -0.097900 0.037300 -0.994500
vn 0.097900 0.037300 -0.994500
vn 0.290100 0.037300 -0.956300
vn 0.471100 0.037300 -0.881300
vn 0.634000 0.037300 -0.772500
vn 0.772500 0.037300 -0.634000
vn 0.881300 0.037300 -0.471100
vn 0.956300 0.037300 -0.290100
vn 0.994500 0.037300 -0.097900
vn 0.994500 0.037300 0.097900
vn 0.956300 0.037300 0.290100
vn 0.881300 0.037300 0.471100
vn 0.772500 0.037300 0.634000
vn 0.634000 0.037300 0.772500
vn 0.471100 0.037300 0.881300
vn 0.290100 0.037300 0.956300
vn 0.097900 0.037300 0.994500
vn 0.000000 -1.000000 0.000000
vn -0.289900 -0.051900 -0.955700
usemtl Material.002
s off
f 5//1 7//1 100//1 99//1
f 23//2 25//2 109//2 108//2
f 41//3 43//3 118//3 117//3
f 59//4 61//4 127//4 126//4
f 15//5 17//5 105//5 104//5
f 33//6 35//6 114//6 113//6
f 51//7 53//7 123//7 122//7
f 7//8 9//8 101//8 100//8
f 25//9 27//9 110//9 109//9
f 43//10 45//10 119//10 118//10
f 17//11 19//11 106//11 105//11
f 35//12 37//12 115//12 114//12
f 53//13 55//13 124//13 123//13
f 9//14 11//14 102//14 101//14
f 27//15 29//15 111//15 110//15
f 45//16 47//16 120//16 119//16
f 1//17 3//17 98//17 97//17
f 63//18 1//18 97//18 128//18
f 19//19 21//19 107//19 106//19
f 37//20 39//20 116//20 115//20
f 55//21 57//21 125//21 124//21
f 11//22 13//22 103//22 102//22
f 29//23 31//23 112//23 111//23
f 47//24 49//24 121//24 120//24
f 3//25 5//25 99//25 98//25
f 21//26 23//26 108//26 107//26
f 39//27 41//27 117//27 116//27
f 57//28 59//28 126//28 125//28
f 13//29 15//29 104//29 103//29
f 31//30 33//30 113//30 112//30
f 49//31 51//31 122//31 121//31
f 4//32 2//32 64//32 62//32 60//32 58//32 56//32 54//32 52//32 50//32 48//32 46//32 44//32 42//32 40//32 38//32 36//32 34//32 32//32 30//32 28//32 26//32 24//32 22//32 20//32 18//32 16//32 14//32 12//32 10//32 8//32 6//32
f 1//33 2//33 4//33 3//33
f 3//34 4//34 6//34 5//34
f 5//35 6//35 8//35 7//35
f 7//36 8//36 10//36 9//36
f 9//37 10//37 12//37 11//37
f 11//38 12//38 14//38 13//38
f 13//39 14//39 16//39 15//39
f 15//40 16//40 18//40 17//40
f 17//41 18//41 20//41 19//41
f 19//42 20//42 22//42 21//42
f 21//43 22//43 24//43 23//43
f 23//44 24//44 26//44 25//44
f 25//45 26//45 28//45 27//45
f 27//46 28//46 30//46 29//46
f 29//47 30//47 32//47 31//47
f 31//48 32//48 34//48 33//48
f 33//49 34//49 36//49 35//49
f 35//50 36//50 38//50 37//50
f 37//51 38//51 40//51 39//51
f 39//52 40//52 42//52 41//52
f 41//53 42//53 44//53 43//53
f 43//54 44//54 46//54 45//54
f 45//55 46//55 48//55 47//55
f 47//56 48//56 50//56 49//56
f 49//57 50//57 52//57 51//57
f 51//58 52//58 54//58 53//58
f 53//59 54//59 56//59 55//59
f 55//60 56//60 58//60 57//60
f 57//61 58//61 60//61 59//61
f 59//62 60//62 62//62 61//62
f 61//63 62//63 64//63 63//63
f 63//64 64//64 2//64 1//64
f 21//65 23//65 76//65 75//65
f 49//65 51//65 90//65 89//65
f 23//65 25//65 77//65 76//65
f 51//65 53//65 91//65 90//65
f 25//65 27//65 78//65 77//65
f 53//65 55//65 92//65 91//65
f 27//65 29//65 79//65 78//65
f 1//65 3//65 66//65 65//65
f 55//65 57//65 93//65 92//65
f 29//65 31//65 80//65 79//65
f 3//65 5//65 67//65 66//65
f 57//65 59//65 94//65 93//65
f 31//65 33//65 81//65 80//65
f 5//65 7//65 68//65 67//65
f 59//65 61//65 95//65 94//65
f 33//65 35//65 82//65 81//65
f 7//65 9//65 69//65 68//65
f 35//65 37//65 83//65 82//65
f 9//65 11//65 70//65 69//65
f 61//65 63//65 96//65 95//65
f 37//65 39//65 84//65 83//65
f 11//65 13//65 71//65 70//65
f 63//65 1//65 65//65 96//65
f 39//65 41//65 85//65 84//65
f 13//65 15//65 72//65 71//65
f 41//65 43//65 86//65 85//65
f 15//65 17//65 73//65 72//65
f 43//65 45//65 87//65 86//65
f 17//65 19//65 74//65 73//65
f 45//65 47//65 88//65 87//65
f 19//65 21//65 75//65 74//65
f 47//65 49//65 89//65 88//65
f 97//65 98//65 99//65 100//65 101//65 102//65 103//65 104//65 105//65 106//65 107//65 108//65 109//65 110//65 111//65 112//65 113//65 114//65 115//65 116//65 117//65 118//65 119//65 120//65 121//65 122//65 123//65 124//65 125//65 126//65 127//65 128//65
f 61//66 63//66 128//66 127//66
